<svg xmlns="http://www.w3.org/2000/svg" xmlns:xlink="http://www.w3.org/1999/xlink" width="5.6" height="1395.197" viewBox="0 0 5.6 1395.197">
  <defs>
    <clipPath id="clip-path">
      <rect id="Rectangle_1039" data-name="Rectangle 1039" width="1395.197" height="5.6" fill="none"/>
    </clipPath>
  </defs>
  <g id="Group_1730" data-name="Group 1730" transform="translate(0 1395.197) rotate(-90)">
    <g id="Group_1559" data-name="Group 1559" transform="translate(0 0)" clip-path="url(#clip-path)">
      <path id="Path_23956" data-name="Path 23956" d="M1394.112,2.342c-5.62.007-11.231.067-16.847.134-21.254.1-42.439.549-63.724.471-29.584.048-59.2-.144-88.766.151-35.729.52-71.5.2-107.069-.577-34.209-.483-68.582.091-102.84.055-32.555-.006-65.066-.486-97.63-.391-53.8-.215-107.381,1.224-161.121,1.182-28.326-.012-56.429-.774-84.671-1.076-21.175-.126-42.36-.048-63.506-.423-46.886-.318-93.4-1.712-140.332-1.8C431.891-.2,396.325.338,360.73.811c-26.994.086-54.052-.039-80.991.418-26.984.321-52.279,1.138-78.862,1.935-20.432.105-37.2.216-57.311.866-29.678-.181-59.291.99-88.89.391C38.344,4.126,22,3.837,5.625,3.665a25.607,25.607,0,0,0-5.2.613c-.56.113-.708.385.436.356C23.354,4.8,45.712,5.477,68.2,5.6c18.877-.059,37.641-.615,56.538-.564,21.378.087,42.3-1.073,63.748-.821,24.914-.348,48.5-1.509,73.558-1.793,31.3-.6,62.723-.508,94.1-.577,25.825-.224,51.526-.877,77.421-.747,40.587-.163,80.957.532,121.321,1.253,40.8.7,81.695.878,122.589,1.13,29.935.62,59.99,1.045,90.1,1.019,32-.249,63.912-.828,95.937-.993,46.609-.471,93.228.018,139.832.22,34.6.059,69.23-.413,103.806-.107,32.065.692,64.229,1.154,96.492.851,35.185-.466,70.448-.28,105.683-.313,20.086.071,40.082-.353,60.148-.435,6.21-.066,12.415-.149,18.64-.163a32.225,32.225,0,0,0,6.537-.771c.718-.143.886-.484-.545-.448" transform="translate(0 0)"/>
    </g>
  </g>
</svg>
