<svg xmlns="http://www.w3.org/2000/svg" xmlns:xlink="http://www.w3.org/1999/xlink" width="1380.986" height="5.6" viewBox="0 0 1380.986 5.6">
  <defs>
    <clipPath id="clip-path">
      <rect id="Rectangle_1039" data-name="Rectangle 1039" width="1380.986" height="5.6" fill="none"/>
    </clipPath>
  </defs>
  <g id="Group_1560" data-name="Group 1560" transform="translate(0 0)">
    <g id="Group_1559" data-name="Group 1559" transform="translate(0 0)" clip-path="url(#clip-path)">
      <path id="Path_23956" data-name="Path 23956" d="M1379.912,2.342c-5.563.007-11.117.067-16.675.134-21.038.1-42.007.549-63.074.471-29.282.048-58.6-.144-87.862.151-35.365.52-70.775.2-105.979-.577-33.861-.483-67.883.091-101.793.055-32.223-.006-64.4-.486-96.636-.391-53.256-.215-106.287,1.224-159.48,1.182-28.037-.012-55.854-.774-83.808-1.076-20.959-.126-41.929-.048-62.859-.423C555.337,1.55,509.3.156,462.843.072,427.492-.2,392.289.338,357.056.811c-26.719.086-53.5-.039-80.167.418-26.709.321-51.747,1.138-78.059,1.935-20.224.105-36.821.216-56.727.866-29.376-.181-58.687.99-87.985.391-16.166-.3-32.341-.584-48.551-.756a25.1,25.1,0,0,0-5.147.613c-.554.113-.7.385.431.356,22.263.169,44.394.843,66.653.967,18.685-.059,37.257-.615,55.962-.564,21.16.087,41.865-1.073,63.1-.821,24.66-.348,48.007-1.509,72.809-1.793,30.978-.6,62.084-.508,93.146-.577,25.562-.224,51-.877,76.632-.747,40.174-.163,80.132.532,120.086,1.253,40.385.7,80.862.878,121.34,1.13,29.63.62,59.379,1.045,89.185,1.019,31.67-.249,63.261-.828,94.96-.993,46.134-.471,92.279.018,138.408.22,34.248.059,68.525-.413,102.748-.107,31.738.692,63.574,1.154,95.509.851,34.826-.466,69.731-.28,104.606-.313,19.881.071,39.674-.353,59.535-.435,6.147-.066,12.289-.149,18.45-.163a31.591,31.591,0,0,0,6.47-.771c.711-.143.877-.484-.539-.448" transform="translate(0 0)"/>
    </g>
  </g>
</svg>
