<svg xmlns="http://www.w3.org/2000/svg" width="398.495" height="462.238" viewBox="0 0 398.495 462.238">
  <path id="Path_23861" data-name="Path 23861" d="M547.243,468.558c-6.975.4-7.7-.413-14.865-.217H283.7c-20.175,0-40.562-.491-60.737-.535s-42.576.172-62.538.351v-7.228c0-2.276,2.973-4.06,2.973-6.113V398.283c0-5.265-5.1-10.575-2.973-15.84,6.158-16.331,1.274-32.661,3.185-49.081,0-3.436,4.035-6.916,3.4-10.4-1.274-6.916,3.814-17.99,1.266-24.951a.976.976,0,0,0,0-.759c-1.062-7.362,2.659-31.806.747-39.391s2.014-13.692-.323-20.608V234.49c0-7.63-2.013-19.035.323-26.665,5.946-16.955-6.583-7.05-2.336-24.006a85.819,85.819,0,0,0,2.336-26.37c-.425-8.79-4.46-17.848-6.8-26.772v-3.123L160,66.955l2.226-58.177c6.8,0,11.468-.312,16.353-.312,27.82,0,49.269-2.426,76.664-1.98,32.067.669,63.71,0,95.99.848,25.146.66,54.75,2.507,79.176,2.543,6.68.01,5.13-3.46,12.076-3.391,13.924.138,25.563,2.96,39.142,3.391,16.629.528,35.069-1.314,51.393-1.115,6.188.236,12.239.61,18.051,1.115a29.177,29.177,0,0,1-3.4,19.588,3.248,3.248,0,0,0,0,3.123c0,13.331,6.051,12.9,7.343,26.492.077.819.2,1.9.343,2.981a59.8,59.8,0,0,1,2.336,27.932c-3.185,10.842-2.124,21.73-3.185,32.617,0,6.024-3.4,12.092-3.4,18.16v19.275c0,6.425-2.124,13.029,0,19.454,4.884,12.181-4.288,8.649-3.439,20.786v7.541c1.7,5.4-3.439,24.517-1.1,29.916v1.517c1.274,6.2-5.522,9.853-2.548,16.011,5.838,14.216,6.69,28.5,2.548,42.745-4.46,21.016,6.624,57.7,3.651,78.716,0,2.008-2.761,3.971-2.761,5.979,0,3.346,1.487,6.693,2.124,10.039a2.415,2.415,0,0,1,0,3.436c-2.6,2.942-3.17,5.948-1.7,8.924,0,3.346-1.062,6.693,0,10.039,0,2.454,0,4.863,1.7,7.318a4.146,4.146,0,0,1,0,2.275c0,1.517-1.911,3.034-1.911,4.462,0,11.512.212,26.728.212,38.954" transform="translate(558.397 468.669) rotate(180)" fill="#fff"/>
</svg>
